<svg width="15" height="15" viewBox="0 0 15 15" fill="none" xmlns="http://www.w3.org/2000/svg">
<path fill-rule="evenodd" clip-rule="evenodd" d="M8 4H7V3H8V4ZM12 7H11V8H12V7ZM5 4H4V5H5V4ZM4 7H3V8H4V7ZM15 1.5L14.5 1L8 6C7.94 5.98 7 6 7 6C6.45 6 6 6.45 6 7V8C6 8.55 6.45 9 7 9H8C8.55 9 9 8.55 9 8V7.08L15 1.5ZM13.41 5.59C13.6 6.2 13.71 6.84 13.71 7.5C13.71 10.92 10.93 13.7 7.51 13.7C4.09 13.7 1.3 10.92 1.3 7.5C1.3 4.08 4.08 1.3 7.5 1.3C8.7 1.3 9.81 1.64 10.77 2.24L11.71 1.3C10.4724 0.454534 9.00881 0.00151639 7.51 0C3.36 0 0 3.36 0 7.5C0 11.64 3.36 15 7.5 15C11.64 15 15 11.64 15 7.5C15 6.47 14.8 5.48 14.41 4.59L13.41 5.59Z" fill="white"/>
</svg>
