<svg width="30" height="30" viewBox="0 0 30 30" fill="none" xmlns="http://www.w3.org/2000/svg">
<circle cx="15" cy="15" r="15" fill="#CEE3FF"/>
<path d="M25 17.1666C25 17.6666 24 18 22.8333 18.1666C22.0833 16.75 20.5833 15.6666 18.8333 14.9166C19 14.6666 19.1667 14.5 19.3333 14.25H20C22.5833 14.1666 25 15.75 25 17.1666ZM10.6667 14.1666H10C7.41667 14.1666 5 15.75 5 17.1666C5 17.6666 6 18 7.16667 18.1666C7.91667 16.75 9.41667 15.6666 11.1667 14.9166L10.6667 14.1666ZM15 15C16.8333 15 18.3333 13.5 18.3333 11.6666C18.3333 9.83331 16.8333 8.33331 15 8.33331C13.1667 8.33331 11.6667 9.83331 11.6667 11.6666C11.6667 13.5 13.1667 15 15 15ZM15 15.8333C11.5833 15.8333 8.33333 18 8.33333 20C8.33333 21.6666 15 21.6666 15 21.6666C15 21.6666 21.6667 21.6666 21.6667 20C21.6667 18 18.4167 15.8333 15 15.8333ZM19.75 13.3333H20C21.4167 13.3333 22.5 12.25 22.5 10.8333C22.5 9.41665 21.4167 8.33331 20 8.33331C19.5833 8.33331 19.25 8.41665 18.9167 8.58331C19.5833 9.41665 20 10.5 20 11.6666C20 12.25 19.9167 12.8333 19.75 13.3333ZM10 13.3333H10.25C10.0833 12.8333 10 12.25 10 11.6666C10 10.5 10.4167 9.41665 11.0833 8.58331C10.75 8.41665 10.4167 8.33331 10 8.33331C8.58333 8.33331 7.5 9.41665 7.5 10.8333C7.5 12.25 8.58333 13.3333 10 13.3333Z" fill="#002353"/>
</svg>
