<svg width="30" height="30" viewBox="0 0 30 30" fill="none" xmlns="http://www.w3.org/2000/svg">
<circle cx="15" cy="15" r="15" fill="#D3FFE6"/>
<path d="M23.185 11.1925C23.1084 11.0817 23.006 10.9912 22.8867 10.9286C22.7674 10.8661 22.6347 10.8334 22.5 10.8333H11.1108L10.1492 8.525C10.0231 8.22102 9.80956 7.96133 9.53569 7.77885C9.26182 7.59636 8.93993 7.49932 8.61083 7.5H6.66667V9.16667H8.61083L12.5642 18.6542C12.6275 18.806 12.7343 18.9356 12.8712 19.0268C13.0081 19.118 13.1689 19.1667 13.3333 19.1667H20C20.3475 19.1667 20.6583 18.9508 20.7808 18.6267L23.2808 11.96C23.3281 11.8339 23.344 11.6981 23.3274 11.5645C23.3107 11.4308 23.2618 11.3032 23.185 11.1925Z" fill="#219653"/>
<path d="M13.75 22.5C14.4404 22.5 15 21.9404 15 21.25C15 20.5596 14.4404 20 13.75 20C13.0596 20 12.5 20.5596 12.5 21.25C12.5 21.9404 13.0596 22.5 13.75 22.5Z" fill="#219653"/>
<path d="M19.5833 22.5C20.2737 22.5 20.8333 21.9404 20.8333 21.25C20.8333 20.5596 20.2737 20 19.5833 20C18.893 20 18.3333 20.5596 18.3333 21.25C18.3333 21.9404 18.893 22.5 19.5833 22.5Z" fill="#219653"/>
</svg>
