<svg width="30" height="30" viewBox="0 0 30 30" fill="none" xmlns="http://www.w3.org/2000/svg">
<circle cx="15" cy="15" r="15" fill="#FFF3D3"/>
<path d="M19.8333 9.41668C18.4583 9.41668 17.3333 9.04168 17.3333 8.58334V9.41668C17.3333 9.87501 18.4583 10.25 19.8333 10.25C21.2083 10.25 22.3333 9.87501 22.3333 9.41668V8.58334C22.3333 9.04168 21.2083 9.41668 19.8333 9.41668Z" fill="#FFA000"/>
<path d="M19.8333 8.16668C18.4583 8.16668 17.3333 7.79168 17.3333 7.33334V8.16668C17.3333 8.62501 18.4583 9.00001 19.8333 9.00001C21.2083 9.00001 22.3333 8.62501 22.3333 8.16668V7.33334C22.3333 7.79168 21.2083 8.16668 19.8333 8.16668Z" fill="#FFA000"/>
<path d="M19.8333 10.6667C18.4583 10.6667 17.3333 10.2917 17.3333 9.83334V10.6667C17.3333 11.125 18.4583 11.5 19.8333 11.5C21.2083 11.5 22.3333 11.125 22.3333 10.6667V9.83334C22.3333 10.2917 21.2083 10.6667 19.8333 10.6667Z" fill="#FFA000"/>
<path d="M19.8333 11.9167C18.4583 11.9167 17.3333 11.5417 17.3333 11.0833V11.9167C17.3333 12.375 18.4583 12.75 19.8333 12.75C21.2083 12.75 22.3333 12.375 22.3333 11.9167V11.0833C22.3333 11.5417 21.2083 11.9167 19.8333 11.9167Z" fill="#FFA000"/>
<path d="M19.8333 13.1667C18.4583 13.1667 17.3333 12.7917 17.3333 12.3333V13.1667C17.3333 13.625 18.4583 14 19.8333 14C21.2083 14 22.3333 13.625 22.3333 13.1667V12.3333C22.3333 12.7917 21.2083 13.1667 19.8333 13.1667Z" fill="#FFA000"/>
<path d="M19.8333 14.4167C18.4583 14.4167 17.3333 14.0417 17.3333 13.5833V14.4167C17.3333 14.875 18.4583 15.25 19.8333 15.25C21.2083 15.25 22.3333 14.875 22.3333 14.4167V13.5833C22.3333 14.0417 21.2083 14.4167 19.8333 14.4167Z" fill="#FFA000"/>
<path d="M19.8333 15.6667C18.4583 15.6667 17.3333 15.2917 17.3333 14.8333V15.6667C17.3333 16.125 18.4583 16.5 19.8333 16.5C21.2083 16.5 22.3333 16.125 22.3333 15.6667V14.8333C22.3333 15.2917 21.2083 15.6667 19.8333 15.6667Z" fill="#FFA000"/>
<path d="M19.8333 16.9167C18.4583 16.9167 17.3333 16.5417 17.3333 16.0833V16.9167C17.3333 17.375 18.4583 17.75 19.8333 17.75C21.2083 17.75 22.3333 17.375 22.3333 16.9167V16.0833C22.3333 16.5417 21.2083 16.9167 19.8333 16.9167Z" fill="#FFA000"/>
<path d="M19.8333 18.1667C18.4583 18.1667 17.3333 17.7917 17.3333 17.3333V18.1667C17.3333 18.625 18.4583 19 19.8333 19C21.2083 19 22.3333 18.625 22.3333 18.1667V17.3333C22.3333 17.7917 21.2083 18.1667 19.8333 18.1667Z" fill="#FFA000"/>
<path d="M19.8333 19.4167C18.4583 19.4167 17.3333 19.0417 17.3333 18.5833V19.4167C17.3333 19.875 18.4583 20.25 19.8333 20.25C21.2083 20.25 22.3333 19.875 22.3333 19.4167V18.5833C22.3333 19.0417 21.2083 19.4167 19.8333 19.4167Z" fill="#FFA000"/>
<path d="M19.8333 20.6667C18.4583 20.6667 17.3333 20.2917 17.3333 19.8333V20.6667C17.3333 21.125 18.4583 21.5 19.8333 21.5C21.2083 21.5 22.3333 21.125 22.3333 20.6667V19.8333C22.3333 20.2917 21.2083 20.6667 19.8333 20.6667Z" fill="#FFA000"/>
<path d="M19.8333 8.16667C21.214 8.16667 22.3333 7.79357 22.3333 7.33333C22.3333 6.8731 21.214 6.5 19.8333 6.5C18.4526 6.5 17.3333 6.8731 17.3333 7.33333C17.3333 7.79357 18.4526 8.16667 19.8333 8.16667Z" fill="#FFC107"/>
<path d="M19.8333 9C18.6667 9 17.7083 8.75 17.4167 8.375C17.375 8.45833 17.3333 8.5 17.3333 8.58333C17.3333 9.04167 18.4583 9.41667 19.8333 9.41667C21.2083 9.41667 22.3333 9.04167 22.3333 8.58333C22.3333 8.5 22.2917 8.45833 22.25 8.375C21.9583 8.75 21 9 19.8333 9Z" fill="#FFC107"/>
<path d="M19.8333 10.25C18.6667 10.25 17.7083 10 17.4167 9.625C17.375 9.70833 17.3333 9.75 17.3333 9.83333C17.3333 10.2917 18.4583 10.6667 19.8333 10.6667C21.2083 10.6667 22.3333 10.2917 22.3333 9.83333C22.3333 9.75 22.2917 9.70833 22.25 9.625C21.9583 10 21 10.25 19.8333 10.25Z" fill="#FFC107"/>
<path d="M19.8333 11.5C18.6667 11.5 17.7083 11.25 17.4167 10.875C17.375 10.9583 17.3333 11 17.3333 11.0833C17.3333 11.5417 18.4583 11.9167 19.8333 11.9167C21.2083 11.9167 22.3333 11.5417 22.3333 11.0833C22.3333 11 22.2917 10.9583 22.25 10.875C21.9583 11.25 21 11.5 19.8333 11.5Z" fill="#FFC107"/>
<path d="M19.8333 12.75C18.6667 12.75 17.7083 12.5 17.4167 12.125C17.375 12.2083 17.3333 12.25 17.3333 12.3333C17.3333 12.7917 18.4583 13.1667 19.8333 13.1667C21.2083 13.1667 22.3333 12.7917 22.3333 12.3333C22.3333 12.25 22.2917 12.2083 22.25 12.125C21.9583 12.5 21 12.75 19.8333 12.75Z" fill="#FFC107"/>
<path d="M19.8333 14C18.6667 14 17.7083 13.75 17.4167 13.375C17.375 13.4583 17.3333 13.5 17.3333 13.5833C17.3333 14.0417 18.4583 14.4167 19.8333 14.4167C21.2083 14.4167 22.3333 14.0417 22.3333 13.5833C22.3333 13.5 22.2917 13.4583 22.25 13.375C21.9583 13.75 21 14 19.8333 14Z" fill="#FFC107"/>
<path d="M19.8333 15.25C18.6667 15.25 17.7083 15 17.4167 14.625C17.375 14.7083 17.3333 14.75 17.3333 14.8333C17.3333 15.2917 18.4583 15.6667 19.8333 15.6667C21.2083 15.6667 22.3333 15.2917 22.3333 14.8333C22.3333 14.75 22.2917 14.7083 22.25 14.625C21.9583 15 21 15.25 19.8333 15.25Z" fill="#FFC107"/>
<path d="M19.8333 16.5C18.6667 16.5 17.7083 16.25 17.4167 15.875C17.375 15.9583 17.3333 16 17.3333 16.0833C17.3333 16.5417 18.4583 16.9167 19.8333 16.9167C21.2083 16.9167 22.3333 16.5417 22.3333 16.0833C22.3333 16 22.2917 15.9583 22.25 15.875C21.9583 16.25 21 16.5 19.8333 16.5Z" fill="#FFC107"/>
<path d="M19.8333 17.75C18.6667 17.75 17.7083 17.5 17.4167 17.125C17.375 17.2083 17.3333 17.25 17.3333 17.3333C17.3333 17.7917 18.4583 18.1667 19.8333 18.1667C21.2083 18.1667 22.3333 17.7917 22.3333 17.3333C22.3333 17.25 22.2917 17.2083 22.25 17.125C21.9583 17.5 21 17.75 19.8333 17.75Z" fill="#FFC107"/>
<path d="M19.8333 19C18.6667 19 17.7083 18.75 17.4167 18.375C17.375 18.4583 17.3333 18.5 17.3333 18.5833C17.3333 19.0417 18.4583 19.4167 19.8333 19.4167C21.2083 19.4167 22.3333 19.0417 22.3333 18.5833C22.3333 18.5 22.2917 18.4583 22.25 18.375C21.9583 18.75 21 19 19.8333 19Z" fill="#FFC107"/>
<path d="M19.8333 20.25C18.6667 20.25 17.7083 20 17.4167 19.625C17.375 19.7083 17.3333 19.75 17.3333 19.8333C17.3333 20.2917 18.4583 20.6667 19.8333 20.6667C21.2083 20.6667 22.3333 20.2917 22.3333 19.8333C22.3333 19.75 22.2917 19.7083 22.25 19.625C21.9583 20 21 20.25 19.8333 20.25Z" fill="#FFC107"/>
<path d="M8.16667 11.9167C6.79167 11.9167 5.66667 11.5417 5.66667 11.0833V11.9167C5.66667 12.375 6.79167 12.75 8.16667 12.75C9.54167 12.75 10.6667 12.375 10.6667 11.9167V11.0833C10.6667 11.5417 9.54167 11.9167 8.16667 11.9167Z" fill="#FFA000"/>
<path d="M8.16667 10.6667C6.79167 10.6667 5.66667 10.2917 5.66667 9.83334V10.6667C5.66667 11.125 6.79167 11.5 8.16667 11.5C9.54167 11.5 10.6667 11.125 10.6667 10.6667V9.83334C10.6667 10.2917 9.54167 10.6667 8.16667 10.6667Z" fill="#FFA000"/>
<path d="M8.16667 13.1667C6.79167 13.1667 5.66667 12.7917 5.66667 12.3333V13.1667C5.66667 13.625 6.79167 14 8.16667 14C9.54167 14 10.6667 13.625 10.6667 13.1667V12.3333C10.6667 12.7917 9.54167 13.1667 8.16667 13.1667Z" fill="#FFA000"/>
<path d="M8.16667 14.4167C6.79167 14.4167 5.66667 14.0417 5.66667 13.5833V14.4167C5.66667 14.875 6.79167 15.25 8.16667 15.25C9.54167 15.25 10.6667 14.875 10.6667 14.4167V13.5833C10.6667 14.0417 9.54167 14.4167 8.16667 14.4167Z" fill="#FFA000"/>
<path d="M8.16667 15.6667C6.79167 15.6667 5.66667 15.2917 5.66667 14.8333V15.6667C5.66667 16.125 6.79167 16.5 8.16667 16.5C9.54167 16.5 10.6667 16.125 10.6667 15.6667V14.8333C10.6667 15.2917 9.54167 15.6667 8.16667 15.6667Z" fill="#FFA000"/>
<path d="M8.16667 16.9167C6.79167 16.9167 5.66667 16.5417 5.66667 16.0833V16.9167C5.66667 17.375 6.79167 17.75 8.16667 17.75C9.54167 17.75 10.6667 17.375 10.6667 16.9167V16.0833C10.6667 16.5417 9.54167 16.9167 8.16667 16.9167Z" fill="#FFA000"/>
<path d="M8.16667 18.1667C6.79167 18.1667 5.66667 17.7917 5.66667 17.3333V18.1667C5.66667 18.625 6.79167 19 8.16667 19C9.54167 19 10.6667 18.625 10.6667 18.1667V17.3333C10.6667 17.7917 9.54167 18.1667 8.16667 18.1667Z" fill="#FFA000"/>
<path d="M8.16667 19.4167C6.79167 19.4167 5.66667 19.0417 5.66667 18.5833V19.4167C5.66667 19.875 6.79167 20.25 8.16667 20.25C9.54167 20.25 10.6667 19.875 10.6667 19.4167V18.5833C10.6667 19.0417 9.54167 19.4167 8.16667 19.4167Z" fill="#FFA000"/>
<path d="M8.16667 20.6667C6.79167 20.6667 5.66667 20.2917 5.66667 19.8333V20.6667C5.66667 21.125 6.79167 21.5 8.16667 21.5C9.54167 21.5 10.6667 21.125 10.6667 20.6667V19.8333C10.6667 20.2917 9.54167 20.6667 8.16667 20.6667Z" fill="#FFA000"/>
<path d="M8.16667 10.6667C9.54738 10.6667 10.6667 10.2936 10.6667 9.83333C10.6667 9.3731 9.54738 9 8.16667 9C6.78596 9 5.66667 9.3731 5.66667 9.83333C5.66667 10.2936 6.78596 10.6667 8.16667 10.6667Z" fill="#FFC107"/>
<path d="M8.16667 11.5C7 11.5 6.04167 11.25 5.75 10.875C5.70833 10.9583 5.66667 11 5.66667 11.0833C5.66667 11.5417 6.79167 11.9167 8.16667 11.9167C9.54167 11.9167 10.6667 11.5417 10.6667 11.0833C10.6667 11 10.625 10.9583 10.5833 10.875C10.2917 11.25 9.33333 11.5 8.16667 11.5Z" fill="#FFC107"/>
<path d="M8.16667 12.75C7 12.75 6.04167 12.5 5.75 12.125C5.70833 12.2083 5.66667 12.25 5.66667 12.3333C5.66667 12.7917 6.79167 13.1667 8.16667 13.1667C9.54167 13.1667 10.6667 12.7917 10.6667 12.3333C10.6667 12.25 10.625 12.2083 10.5833 12.125C10.2917 12.5 9.33333 12.75 8.16667 12.75Z" fill="#FFC107"/>
<path d="M8.16667 14C7 14 6.04167 13.75 5.75 13.375C5.70833 13.4583 5.66667 13.5 5.66667 13.5833C5.66667 14.0417 6.79167 14.4167 8.16667 14.4167C9.54167 14.4167 10.6667 14.0417 10.6667 13.5833C10.6667 13.5 10.625 13.4583 10.5833 13.375C10.2917 13.75 9.33333 14 8.16667 14Z" fill="#FFC107"/>
<path d="M8.16667 15.25C7 15.25 6.04167 15 5.75 14.625C5.70833 14.7083 5.66667 14.75 5.66667 14.8333C5.66667 15.2917 6.79167 15.6667 8.16667 15.6667C9.54167 15.6667 10.6667 15.2917 10.6667 14.8333C10.6667 14.75 10.625 14.7083 10.5833 14.625C10.2917 15 9.33333 15.25 8.16667 15.25Z" fill="#FFC107"/>
<path d="M8.16667 16.5C7 16.5 6.04167 16.25 5.75 15.875C5.70833 15.9583 5.66667 16 5.66667 16.0833C5.66667 16.5417 6.79167 16.9167 8.16667 16.9167C9.54167 16.9167 10.6667 16.5417 10.6667 16.0833C10.6667 16 10.625 15.9583 10.5833 15.875C10.2917 16.25 9.33333 16.5 8.16667 16.5Z" fill="#FFC107"/>
<path d="M8.16667 17.75C7 17.75 6.04167 17.5 5.75 17.125C5.70833 17.2083 5.66667 17.25 5.66667 17.3333C5.66667 17.7917 6.79167 18.1667 8.16667 18.1667C9.54167 18.1667 10.6667 17.7917 10.6667 17.3333C10.6667 17.25 10.625 17.2083 10.5833 17.125C10.2917 17.5 9.33333 17.75 8.16667 17.75Z" fill="#FFC107"/>
<path d="M8.16667 19C7 19 6.04167 18.75 5.75 18.375C5.70833 18.4583 5.66667 18.5 5.66667 18.5833C5.66667 19.0417 6.79167 19.4167 8.16667 19.4167C9.54167 19.4167 10.6667 19.0417 10.6667 18.5833C10.6667 18.5 10.625 18.4583 10.5833 18.375C10.2917 18.75 9.33333 19 8.16667 19Z" fill="#FFC107"/>
<path d="M8.16667 20.25C7 20.25 6.04167 20 5.75 19.625C5.70833 19.7083 5.66667 19.75 5.66667 19.8333C5.66667 20.2917 6.79167 20.6667 8.16667 20.6667C9.54167 20.6667 10.6667 20.2917 10.6667 19.8333C10.6667 19.75 10.625 19.7083 10.5833 19.625C10.2917 20 9.33333 20.25 8.16667 20.25Z" fill="#FFC107"/>
<path d="M14 15.6667C12.625 15.6667 11.5 15.2917 11.5 14.8333V15.6667C11.5 16.125 12.625 16.5 14 16.5C15.375 16.5 16.5 16.125 16.5 15.6667V14.8333C16.5 15.2917 15.375 15.6667 14 15.6667Z" fill="#FFA000"/>
<path d="M14 14.4167C12.625 14.4167 11.5 14.0417 11.5 13.5833V14.4167C11.5 14.875 12.625 15.25 14 15.25C15.375 15.25 16.5 14.875 16.5 14.4167V13.5833C16.5 14.0417 15.375 14.4167 14 14.4167Z" fill="#FFA000"/>
<path d="M14 16.9167C12.625 16.9167 11.5 16.5417 11.5 16.0833V16.9167C11.5 17.375 12.625 17.75 14 17.75C15.375 17.75 16.5 17.375 16.5 16.9167V16.0833C16.5 16.5417 15.375 16.9167 14 16.9167Z" fill="#FFA000"/>
<path d="M14 18.1667C12.625 18.1667 11.5 17.7917 11.5 17.3333V18.1667C11.5 18.625 12.625 19 14 19C15.375 19 16.5 18.625 16.5 18.1667V17.3333C16.5 17.7917 15.375 18.1667 14 18.1667Z" fill="#FFA000"/>
<path d="M14 19.4167C12.625 19.4167 11.5 19.0417 11.5 18.5833V19.4167C11.5 19.875 12.625 20.25 14 20.25C15.375 20.25 16.5 19.875 16.5 19.4167V18.5833C16.5 19.0417 15.375 19.4167 14 19.4167Z" fill="#FFA000"/>
<path d="M14 20.6667C12.625 20.6667 11.5 20.2917 11.5 19.8333V20.6667C11.5 21.125 12.625 21.5 14 21.5C15.375 21.5 16.5 21.125 16.5 20.6667V19.8333C16.5 20.2917 15.375 20.6667 14 20.6667Z" fill="#FFA000"/>
<path d="M14 14.4167C15.3807 14.4167 16.5 14.0436 16.5 13.5833C16.5 13.1231 15.3807 12.75 14 12.75C12.6193 12.75 11.5 13.1231 11.5 13.5833C11.5 14.0436 12.6193 14.4167 14 14.4167Z" fill="#FFC107"/>
<path d="M14 15.25C12.8333 15.25 11.875 15 11.5833 14.625C11.5417 14.7083 11.5 14.75 11.5 14.8333C11.5 15.2917 12.625 15.6667 14 15.6667C15.375 15.6667 16.5 15.2917 16.5 14.8333C16.5 14.75 16.4583 14.7083 16.4167 14.625C16.125 15 15.1667 15.25 14 15.25Z" fill="#FFC107"/>
<path d="M14 16.5C12.8333 16.5 11.875 16.25 11.5833 15.875C11.5417 15.9583 11.5 16 11.5 16.0833C11.5 16.5417 12.625 16.9167 14 16.9167C15.375 16.9167 16.5 16.5417 16.5 16.0833C16.5 16 16.4583 15.9583 16.4167 15.875C16.125 16.25 15.1667 16.5 14 16.5Z" fill="#FFC107"/>
<path d="M14 17.75C12.8333 17.75 11.875 17.5 11.5833 17.125C11.5417 17.2083 11.5 17.25 11.5 17.3333C11.5 17.7917 12.625 18.1667 14 18.1667C15.375 18.1667 16.5 17.7917 16.5 17.3333C16.5 17.25 16.4583 17.2083 16.4167 17.125C16.125 17.5 15.1667 17.75 14 17.75Z" fill="#FFC107"/>
<path d="M14 19C12.8333 19 11.875 18.75 11.5833 18.375C11.5417 18.4583 11.5 18.5 11.5 18.5833C11.5 19.0417 12.625 19.4167 14 19.4167C15.375 19.4167 16.5 19.0417 16.5 18.5833C16.5 18.5 16.4583 18.4583 16.4167 18.375C16.125 18.75 15.1667 19 14 19Z" fill="#FFC107"/>
<path d="M14 20.25C12.8333 20.25 11.875 20 11.5833 19.625C11.5417 19.7083 11.5 19.75 11.5 19.8333C11.5 20.2917 12.625 20.6667 14 20.6667C15.375 20.6667 16.5 20.2917 16.5 19.8333C16.5 19.75 16.4583 19.7083 16.4167 19.625C16.125 20 15.1667 20.25 14 20.25Z" fill="#FFC107"/>
</svg>
