<svg width="30" height="30" viewBox="0 0 30 30" fill="none" xmlns="http://www.w3.org/2000/svg">
<circle cx="15" cy="15" r="15" fill="#FFEFEF"/>
<path d="M20.1862 15.4441L14.9669 14.5853L15.7156 14.0522L16.9691 14.2256L18.2209 14.0522L20.1862 15.4441Z" fill="#EB5757"/>
<path d="M16.9691 5.58063C17.2179 5.58063 17.4643 5.62965 17.6942 5.7249C17.924 5.82014 18.1329 5.95973 18.3088 6.13571C18.4847 6.31168 18.6243 6.52059 18.7194 6.7505C18.8146 6.98041 18.8635 7.22681 18.8634 7.47563C18.8634 8.52251 18.1963 9.37063 16.9691 9.37063C16.7173 9.37521 16.4672 9.32957 16.2333 9.23639C15.9993 9.14321 15.7863 9.00436 15.6067 8.82794C15.427 8.65152 15.2843 8.44107 15.1869 8.20888C15.0895 7.9767 15.0393 7.72743 15.0393 7.47563C15.0393 7.22384 15.0895 6.97457 15.1869 6.74239C15.2843 6.5102 15.427 6.29975 15.6067 6.12333C15.7863 5.94691 15.9993 5.80806 16.2333 5.71488C16.4672 5.6217 16.7173 5.57606 16.9691 5.58063Z" fill="#EB5757"/>
<path d="M17.4406 19.2763V23.8559C17.4406 24.1304 17.5496 24.3935 17.7437 24.5876C17.9377 24.7816 18.2009 24.8906 18.4753 24.8906C18.7497 24.8906 19.0129 24.7816 19.207 24.5876C19.401 24.3935 19.51 24.1304 19.51 23.8559V19.2763C19.5034 19.0062 19.3914 18.7495 19.1981 18.5609C19.0048 18.3723 18.7454 18.2667 18.4753 18.2667C18.2052 18.2667 17.9458 18.3723 17.7525 18.5609C17.5592 18.7495 17.4473 19.0062 17.4406 19.2763Z" fill="#EB5757"/>
<path d="M23.7787 21.8909C23.7787 22.05 23.7155 22.2026 23.6031 22.3152C23.4907 22.4278 23.3382 22.4912 23.1791 22.4915H20.0066V19.4928H21.3787V16.4959C21.3787 16.1659 21.6478 15.8965 21.9781 15.8965H23.1791C23.5091 15.8965 23.7787 16.1656 23.7787 16.4959V21.8909Z" fill="#EB5757"/>
<path d="M16.9456 22.4912H10.7866C10.7077 22.4912 10.6296 22.4757 10.5568 22.4455C10.484 22.4153 10.4178 22.3711 10.3621 22.3153C10.3064 22.2595 10.2622 22.1933 10.2321 22.1204C10.2019 22.0476 10.1865 21.9695 10.1866 21.8906V16.4956C10.1867 16.3366 10.25 16.1841 10.3625 16.0718C10.475 15.9594 10.6275 15.8962 10.7866 15.8962H11.9869C12.3178 15.8962 12.5869 16.1653 12.5869 16.4956V19.4925H16.9456V22.4912Z" fill="#EB5757"/>
<path d="M13.7025 16.0209C13.658 16.2917 13.7228 16.569 13.8826 16.7921C14.0425 17.0151 14.2843 17.1655 14.555 17.2103L19.0734 17.955C19.3442 17.9992 19.6214 17.9343 19.8443 17.7743C20.0671 17.6144 20.2174 17.3725 20.2622 17.1019C20.2844 16.9679 20.2799 16.8308 20.249 16.6985C20.2181 16.5662 20.1615 16.4413 20.0823 16.3309C20.0032 16.2205 19.903 16.1269 19.7876 16.0552C19.6722 15.9836 19.5437 15.9354 19.4097 15.9135L14.8913 15.1681C14.6206 15.1239 14.3434 15.1888 14.1205 15.3487C13.8977 15.5086 13.7473 15.7504 13.7025 16.0209Z" fill="#EB5757"/>
<path d="M8.60657 10.3491C7.13219 10.3491 5.93313 9.15 5.93313 7.67469C5.93313 6.19937 7.13219 5 8.60657 5C10.0809 5 11.2816 6.19969 11.2816 7.67469C11.2816 9.15 10.0809 10.3491 8.60657 10.3491ZM8.60657 9.68719C9.14022 9.68653 9.65184 9.47426 10.0292 9.09694C10.4066 8.71961 10.6189 8.20803 10.6197 7.67437C10.6197 6.56531 9.71563 5.66156 8.60657 5.66156C7.49657 5.66156 6.59469 6.56531 6.59469 7.67437C6.59502 8.20794 6.80706 8.71957 7.18426 9.09695C7.56147 9.47433 8.073 9.68661 8.60657 9.68719Z" fill="#EB5757"/>
<path d="M8.62031 8.02781C8.58968 8.04188 8.55598 8.04794 8.52236 8.04543C8.48875 8.04291 8.45632 8.0319 8.42812 8.01343C8.40411 7.99804 8.38366 7.97771 8.36814 7.95378C8.35262 7.92985 8.34238 7.90288 8.33812 7.87468L8.33531 6.3203C8.33736 6.26834 8.35944 6.21919 8.39693 6.18315C8.43442 6.14711 8.4844 6.12698 8.53641 6.12698C8.58841 6.12698 8.63839 6.14711 8.67588 6.18315C8.71337 6.21919 8.73545 6.26834 8.7375 6.3203V7.52624L9.76844 7.04062C9.79227 7.02924 9.81812 7.02268 9.84449 7.02131C9.87087 7.01995 9.89725 7.0238 9.92214 7.03266C9.94702 7.04151 9.96991 7.05519 9.98949 7.07292C10.0091 7.09064 10.025 7.11205 10.0362 7.13593C10.0589 7.18418 10.0616 7.23946 10.0436 7.28965C10.0256 7.33984 9.98847 7.38087 9.94031 7.40374L8.62031 8.02749V8.02781Z" fill="#EB5757"/>
<path d="M16.9691 10.8781L19.4256 10.4781V12.205L20.6384 13.1172C20.755 13.2347 20.7078 13.3684 20.6803 13.4063C20.6474 13.4501 20.5984 13.4791 20.5441 13.487C20.4898 13.4948 20.4346 13.4809 20.3906 13.4481L18.86 12.2913C18.7075 12.1882 18.5207 12.149 18.3397 12.1821C18.1587 12.2153 17.9979 12.318 17.8917 12.4684C17.7856 12.6188 17.7427 12.8047 17.7722 12.9864C17.8017 13.168 17.9012 13.3309 18.0494 13.44L20.6647 15.2769C20.7862 15.3625 20.9591 15.4209 21.1312 15.4209C21.2781 15.4209 21.4509 15.36 21.5797 15.2688C21.8541 15.0738 21.955 14.7278 21.8619 14.4091L20.8906 11.5391C20.6312 10.8259 19.9772 9.98657 18.9947 9.98657H14.9431C13.9609 9.98657 13.3069 10.8259 13.0472 11.5391L12.0759 14.4091C11.9825 14.7278 12.0841 15.0741 12.3584 15.2688C12.4862 15.36 12.6597 15.4209 12.8059 15.4209C12.9791 15.4209 13.1522 15.3628 13.2734 15.2769L15.8887 13.44C16.0369 13.3309 16.1365 13.168 16.1659 12.9864C16.1954 12.8047 16.1525 12.6188 16.0464 12.4684C15.9403 12.318 15.7794 12.2153 15.5984 12.1821C15.4174 12.149 15.2306 12.1882 15.0781 12.2913L13.5466 13.4481C13.5026 13.4807 13.4476 13.4946 13.3934 13.4868C13.3392 13.479 13.2904 13.45 13.2575 13.4063C13.2297 13.3608 13.2187 13.3071 13.2262 13.2543C13.2337 13.2016 13.2594 13.1531 13.2987 13.1172C13.2987 13.1172 14.1212 12.4994 14.5122 12.205V10.4781L16.9691 10.8784V10.8781Z" fill="#EB5757"/>
</svg>
